<svg baseProfile="tiny" xmlns="http://www.w3.org/2000/svg" viewBox="0 0 60 47"><path fill="#FFF" d="M37.2 14.8l-.1-6.1 2.4 6.1h1l-.1-9.2h-1l.1 6.1-2.4-6.1H36l.2 9.2zM35.9 35.9c-.3-.1-.6-.2-1-.3-.4-.1-.8-.3-1.2-.5-.9-.4-5.3-2.7-5.3-2.7 0 .1.4 1.2.8 2.5.7.5 2.2 1.6 5.2 2.3 0 0-2.9-.2-4.7-.9.3.8.5 1.5.5 1.6.2.6.5 1.8 1.2 1.6 0 0 4.2-1.3 7.2-1.6l1.1-2.5c-.6.1-1.5.3-2.1.4-.6.1-1.1.1-1.7.1M31.5 24.4c.2.3.5.6 1 .8.5.2.9.3 1.3.3h.1c.8-.1 1.3-.4 1.6-.7-.6-.3-.6-.3-1.2-.7-.3.4-.7.7-1.2.7h-.2c-.7-.1-1.2-.7-1.2-1.4v-.2-.1c.1.1.1.2.2.2s.2.1.2.1c.2 0 .4-.1.5-.2-.5-.3-.9-.4-1.4-.6 0 .3-.1.9.3 1.8 0-.1 0 0 0 0"/><path fill="#CF0A2C" d="M58 17.3c-1.1-2-4.4-2.3-5.5-2.3-2.3-.2-4.6 0-7.9.8.1 1.5.1 2.5.1 2.6-2.4.9-6.3 1.1-9.6.7 1 1.5 3.2 3.6 4.9 4.6-3.6-1.5-6.5-4.7-9.1-6.5-.8-.6-1.6-1.1-2.4-1.6 1.1.3 2.2.6 3.4.8 4 .8 7.8.8 10.7.2.2-4.9.1-10.9-.1-11.8-.1-.8-.5-1.7-1.9-2.2-1-.3-2.6.1-3.2.3.6.4 1.4.7 2.2.9 0 0-1.8.6-5.1-1.6-1.3-.9-2.6-.7-3.2-.5-1.7.2-6.3 1.3-6.8 1.5-.4.1-.8.2-1.2.4-1 .5-1.5 1.3-1.8 2.2-.3.6-1.4 3.1-2 4.4 2.8 1 4.7 2.5 5.5 3.1-1.5-.8-3.4-1.6-5-2.2-.7-.3-1.4-.4-2.2-.6-2.2-.5-5.5-.8-8.5.1-1.6.5-6.6 2.6-6.7 8 0 1.1.2 2.2.5 3.3.7 2.1 2 4 3.6 5.5C8.1 28.9 10 30.1 12 31c1.6.7 3.2 1.4 4.9 1.8-.3-.6-.9-2.2-.6-4.5 0 0-1 1.2-1.2 2.4 0 0-2.2-4.5.1-8.9 0 0-1.5.3-3.3 1.5 0 0 6.3-13.7 19.9-4 2.5 1.8 7.4 7 13.5 7.1.8-.1 2-.2 3.4-.6 5.9-1.7 10.6-6.3 9.3-8.5M37.1 5.6l2.4 6.1-.1-6.1h1l.1 9.2h-1l-2.4-6.1.1 6.1h-1L36 5.6h1.1z"/><path fill="#FFCB8B" d="M43.3 27.6s-.2-.1-.5-.3c-1.1-.1-2-.3-3-.6l1.2 4c.6 1.7-1.7 4-4.6 1.7-.5-.4-1-.6-1.5-.6-.3 0-1.2.2-1.7-.3-.8-.8.2-1.7.2-1.7-.2.7.5 1.1 1.2 1 .5-.1 1.3-.2 2.1.5.7.6 1.4.5 1.4.5 1.7-.1 1.4-1.4 1.4-1.4l-.8-4.1c-.8-.3-1.5-.6-2.2-.9-1.3.5-2.9 0-2.9 0-.4 0-.8-.1-1.3-.3-.5-.2-.8-.5-1-.8 0 0-1.2-.7-1.2-2.1-2.3-.3-3.7.7-3.7.7s.1-1.7 2.4-2.5c.4-.1.8-.2 1.3-.2-1.9-1.2-4.1-2.1-5.4-.7-1.2 1.2-.7 4.6-.7 4.6-1.3.2-2.3.7-2.3.7s1-5.8-1.8-5.5c-2 .2-2.7 2.8-2.6 3.9.1 1.9 1.2 2 1.3 3.6 0 0-.1 1.2 1 1.2.2 0 .3 0 .5-.1-.3.7-1.1 2.2-1.4 3.6-.6 1.8-.4 3.5 1.1 4.7 1.6 1.4 3.4 2.8 4.5 3.8-.1-1 0-2.2 0-2.2.8 2.3 2.1 4.1 2.7 4.9.6.6 1.1 1.2 1.8 1.8 1.1.9 3 1 4.8.9 2.1-.2 1.8-2.8 1.8-2.8s1.5.8.8 2.7l1.2-.3c1.7-.7 1.1-2.9 1.1-3.7 0-.2 0-.4.1-.6-1.5-.2-2.3.4-2.3.4s.2-1.2 2.4-1.1c0 0 1.2.2 1.1-1 0-.5-.7-.6-1.1-.5-.1 0-.2 0-.4.1-1.8.3-5.4 1.8-7.1 2.1-1.6.3-2.4-2.4-2.9-4.2-.6-1.9-1.6-5.2-1.7-5.8v-.1c0-.1.1-.2.3-.2.1 0 .2.1.2.1s7.7 4.4 9.1 4.8c1.1.3 4.5-.8 5-.9h.1c.1 0 .2.1.2.2v.1L39.7 37c.3-.3 3.5-3.9 4.2-5 1.7-2.9-.6-4.4-.6-4.4m-23.7-2.4c-.2-.2-2.4-1.8.2-4.1 0 0-.8.1-1.5 1 .3-1 1.1-1.8 1.8-1.8 0 0 1.4-.1.8 3.2 0 0-.5.1-.6.6-.1.6.4 1 .8 1.2 0-.1-.8.3-1.5-.1m5.5 3.3c-1 .7-.4 4.3-.4 4.3s-1.7-4.4-.1-5.2c1.5-.8 3.5 1.8 3.5 1.8s-2-1.6-3-.9"/><path fill="#6B3F23" d="M16.5 19.7s3.8-3.1 6.9-1c0 0 .5-1 2.2-1 0 0-4.7-2.4-9.1 2M33.7 23.7c-.1.3-.4.5-.8.5h-.2c-.3-.1-.5-.4-.5-.7v-.1c-.1 0-.2 0-.2-.1-.1-.1-.2-.1-.2-.2V23.4c0 .7.5 1.3 1.2 1.4h.2c.5 0 1-.3 1.2-.7l-.7-.4z"/><path fill="#231F20" d="M59.2 16c-1.3-1.6-3.9-2.3-5.9-2.5-2.2-.3-4.5-.2-6.6.1-.6.1-1.4.2-2.1.3-.1-3.4-.4-7.6-.6-8.8-.7-3.3-3.3-3.7-4.4-3.6-.9.1-2.9.6-3.6.2-.3-.3-.6-.6-.8-.7-1.5-1.1-3-.8-4.3-.6-.4.1-6.6 1.4-7.7 1.7-1.1.3-1.7.9-2.4 1.6-.4.3-2.8 4.2-3.7 5.7-2.5-.6-5.4-.8-8.8-.1-1.6.3-3.6 1.2-5.1 2.5C1.6 13.2.5 15.1.1 17.3c-.4 2.1 0 4.3.9 6.2.8 1.9 3.3 6.2 8.9 8.8.2.1 3.1 1.6 6.9 2.5 0 .2.1.5.2.6 1.7 2.9 4.7 3.5 8.2 7.3.8.9 2 2.8 3.6 3.6 1.5.8 5.4.4 7.9.2 3.8-.3 3.1-4.1 3.1-4.1 0-.7 0-1.3.1-1.8.4-.2.6-.7.7-1.2 0-.3 0-.6-.1-.9 0-.1 4.2-5.5 4.2-5.5 2.5-2.8 1.7-4.9 1.2-5.7 1-.1 2.7-.4 4.9-1.2 8-2.8 10.7-7.3 8.4-10.1M43.9 32c-.7 1.1-3.9 4.7-4.2 5l1.7-2.6v-.1c0-.1-.1-.2-.2-.2h-.1c-.5.1-3.9 1.2-5 .9-1.4-.3-9.1-4.8-9.1-4.8s-.1-.1-.2-.1-.3.1-.3.2v.1c.1.6 1.1 3.9 1.7 5.8.6 1.8 1.3 4.5 2.9 4.2 1.7-.3 5.3-1.7 7.1-2.1.1 0 .3 0 .4-.1.4 0 1.1 0 1.1.5.1 1.1-1.1 1-1.1 1-2.2-.1-2.4 1.1-2.4 1.1s.8-.5 2.3-.4c0 .2-.1.4-.1.6 0 .8.6 3-1.1 3.7-.4.2-.8.3-1.2.3.7-1.9-.8-2.7-.8-2.7s.3 2.6-1.8 2.8c-1.9.1-3.7 0-4.8-.9-.7-.6-1.3-1.2-1.8-1.8-.6-.8-1.9-2.6-2.7-4.9v2.2c-1.1-1-2.9-2.4-4.5-3.8-1.5-1.3-1.7-2.9-1.1-4.7.4-1.4 1.1-2.9 1.4-3.6-.1 0-.3.1-.5.1-1.1 0-1-1.2-1-1.2-.1-1.5-1.2-1.7-1.3-3.6 0-1.1.7-3.7 2.6-3.9 2.8-.3 1.8 5.5 1.8 5.5s1.1-.6 2.3-.7c0 0-.4-3.4.7-4.6 1.3-1.4 3.5-.5 5.4.7-.4 0-.8.1-1.2.2-2.2.8-2.4 2.5-2.4 2.5s1.4-1 3.7-.7c0 1.4 1.2 2.1 1.2 2.1-.4-.8-.3-1.5-.1-1.8.4.1.9.3 1.4.6-.1.2-.3.3-.5.2v.1c0 .3.2.6.5.7h.2c.3 0 .6-.2.8-.5l.6.4c.6.4.6.4 1.2.7-.3.3-.9.5-1.6.7h-.1s1.6.5 2.9 0c.7.3 1.4.6 2.2.9l.8 4.1s.3 1.4-1.4 1.4c0 0-.7.1-1.4-.5-.8-.7-1.6-.6-2.1-.5-.7.1-1.4-.3-1.2-1 0 0-.9.9-.2 1.7.5.5 1.4.3 1.7.3.4 0 1 .2 1.5.6 2.8 2.2 5.2 0 4.6-1.7l-1.2-4c.9.3 1.9.5 3 .6.3.2.5.3.5.3-.1.3 2.2 1.8.5 4.7m-14.7 2.8c-.4-1.2-.7-2.4-.8-2.5 0 0 4.5 2.2 5.3 2.7.4.2.9.4 1.2.5.4.1.6.3 1 .3.5.1 1 0 1.6 0 .6-.1 1.5-.3 2.1-.4l-1.1 2.5c-3 .3-7.2 1.6-7.2 1.6-.7.2-1-1.1-1.2-1.6-.1-.2-.3-.8-.5-1.6 1.9.7 4.7.9 4.7.9-2.9-.8-4.5-1.9-5.1-2.4M16.5 19.7c4.4-4.4 9.2-2 9.2-2-1.7 0-2.2 1-2.2 1-3.2-2-7 1-7 1m32.3 6.1c-1.5.4-2.6.6-3.4.6-6.2-.1-11.1-5.3-13.5-7.1-13.6-9.8-19.9 4-19.9 4 1.8-1.2 3.3-1.5 3.3-1.5-2.3 4.4-.1 8.9-.1 8.9.2-1.2 1.2-2.4 1.2-2.4-.3 2.2.3 3.8.6 4.5-1.7-.4-3.3-1-4.9-1.8-2-.9-3.8-2.1-5.4-3.7-1.7-1.5-3-3.4-3.7-5.5-.3-1-.5-2.1-.5-3.3.1-5.4 5.1-7.4 6.7-8 3-1 6.3-.6 8.5-.1.7.2 1.5.3 2.2.6 1.7.6 3.5 1.4 5 2.2-.8-.7-2.7-2.1-5.5-3.1.6-1.3 1.7-3.7 2-4.4.4-.9.9-1.7 1.8-2.2.4-.2.8-.3 1.2-.4.6-.1 5.2-1.2 7-1.6.6-.2 1.9-.4 3.2.5 3.3 2.2 5.1 1.6 5.1 1.6-.9-.2-1.6-.5-2.2-.9.7-.2 2.2-.6 3.2-.3 1.4.5 1.8 1.4 1.9 2.2.1.9.3 6.9.1 11.8-3 .7-6.7.6-10.7-.1-1.2-.2-2.3-.5-3.4-.8.8.5 1.6 1.1 2.4 1.6 2.6 1.8 5.5 5 9.1 6.5-1.7-.9-3.9-3-4.9-4.6 3.3.4 7.2.3 9.6-.7 0 0 0-1.1-.1-2.6 3.4-.8 5.6-1 7.9-.8 1.1.1 4.4.4 5.5 2.3 1.2 2.3-3.5 6.9-9.3 8.6"/><path fill="#231F20" d="M20.3 24c.1-.5.6-.6.6-.6.6-3.3-.8-3.2-.8-3.2-.7 0-1.4.8-1.8 1.8.6-.8 1.5-1 1.5-1-2.6 2.3-.5 3.9-.2 4.1.7.5 1.5 0 1.5 0-.4-.1-.9-.4-.8-1.1M24.6 27.6c-1.6.8.1 5.2.1 5.2s-.6-3.6.4-4.3c1-.7 3 .9 3 .9s-1.9-2.6-3.5-1.8"/></svg>