<svg baseProfile="tiny" xmlns="http://www.w3.org/2000/svg" viewBox="0 0 300 182"><path fill="#FFF" d="M65.6 116.5c-1-9.2-1.8-17.9-2.4-27.1-.5-7.2-1-14.7-1.1-22.3 0-1.7-.1-5.3-.1-5.3s20.5-6.3 30.1-10c.9-.6 2.3-1.1 2.4-2.3-.5-1.9-2.5-1.8-4-2-10.1.7-19.7 4.3-29.1 6.6 0 0-.5-22.6 1.2-33.1.8-3.6.2-6.3-2-8.5-1.1-1.1-3.2-1.6-5.5-1-4.3 1.1-4.2 4.9-4.2 9.1l-.1 36.7-14.2 5.3L37 3c0-1.8-1.7-2.7-4.1-3-2-.2-6.2.5-6.5 3.6-.6 5.9-3 48.3-4.2 64.6-6.4 3-12.5 6.3-18 11.2C.7 82.6-1.1 87 .8 91.3c.7 1.6 1.9 3.8 3 2.4 3.5-4.9 8.3-8.8 13-12 1.8-1.3 5-2.8 5-2.8s-.3 58.3-.4 80.2c0 3.8.9 7.4 4.7 8.5 4.9 1.5 8.9-1.8 12.7-4.5 2-1.5 3-4.1 2.6-7.1-1.3-8.8-2.7-16.9-3.4-26.3-1.4-18.9-1.3-38.6-.9-58 3.3-1.6 13.6-5.8 13.6-5.8s-.3 31.4.8 48.1c.8 12.6 2.6 40.1 5.9 51.3 0 0 .5 1.4 2 3s4.4.6 6.2-.5c3-1.9 9.3-6.4 8.1-11.5-3.1-13.2-6.6-26.1-8.1-39.8"/><path fill="#FFF" d="M200.2 163.3c-15.8-13.6-30.4-26.4-45.4-41.6 0 0 6.9-6.5 9.9-9.9 7.3-9.7 17-19.9 14.4-33.7-.6-3.2-3.3-6.3-6.3-7.6-1.6-.4-3.4-.3-5.4.7-6.8 3.1-12.5 8.2-17.4 14-1.7 1.7-2.9 3.1-5 5.8 1.2-12.4 3.5-23.5 5.1-35.6-.4-2.1-2.1-3.8-3.8-5.4-2.2-1.3-5.1-2.7-7.7-1.4-1.8 1.2-2.6 3.4-2.8 5.5-1.2 17.2-1.7 35.8-1.2 53.5l-1 1.4c-2 1.6-2.9 3.3-3.2 4.9l-.3-2.3c-2.1-9.5-3.2-18.6-4.4-28.5-.8-4.9 2-8.8 2.1-13.3 0-1.8-1.5-2.7-3-2-6.4 3.9-13.1 11.5-12.5 18.2.7 8.6-1.6 16-5 22.9 0 0-.8-1.3-1.5-.7-1.9 2.6-2.3 7-1.3 10l-1.3 2.6c-.3.5-.9.6-1.2-.2-1.1-5 .2-10.1.4-15.1 1.1-11 4.1-20.2 4.5-31.1.4-2.5-3-4.9-6.5-6.3-1.3-.5-3.5-.3-4 .7-2.9 7.6-4 15.7-4 24 0 11.5-1.7 19.7-6.5 27.9-.5.9-1.2.9-1.6 0-1.2-5.9-.3-12.6 0-18.4.5-9.1 3.7-18.2 3.3-28-.2-1.6-3.1-5-6.1-6.3-1.5-.4-4.2-.9-5 .6-6.9 13.9-8.1 30.5-8.1 46.7.3 7.6 1 16.2 7.1 20.1 3.3 1.1 5.8-.7 8.1-2.6 3.8-3.1 6.2-6.6 8.3-10.6.6 3.9 1 7.4 2.6 10.5.9 1.9 1.9 3.7 4.2 3.4 4.7-.7 6.3-7.1 7.9-11.5 3.1 7.6 8.1 17.4 17.2 19 3.5.6 5.1-1.5 6.8-4.1 2.9-4.3 1.5-11.3.8-16.3l-.5-3.7c.2.4.4.6.4.6 0 .1.3.5.4.7.9 1.2 2.1 2.2 2.6 3.5 0 0 1.7 35.3 2.7 41.4.3 1.2 1.9 1.9 3.4 1.6 1.1-.6 1.4-1.2 1.4-2.4-.2-7.6-.7-33.3-.6-36.6 2.4.1 3.6-.5 5.7-1.4 13.2 18.1 24.8 36.6 41.4 52.3 1.4 1.2 3.1 2.6 5.1 1.8 3.8-1.5 5.1-5.9 6.8-9.3 1.8-3 2.8-6.4 0-8.4m-81.9-37.4c-1.8-1.2-3.4-3.8-5-6.4-1.2-2-1.8-4.7-1.8-4.7s2.2-6 3.1-9l.2-.7c.8 2.3 3.3 13.4 4.1 20.2.1.6 0 1-.6.6m30.6-10l-5.1-5.1c1.4-5.3 5.2-8.6 9.5-13.1 3.8-4 9.7-7.9 13.9-8.9 1.2-.3 1.6.3 1.4 1.4-1.8 8.5-8.3 15.3-13.9 21.8-1.9 1.8-3 2.9-5.8 3.9"/><path fill="#FFF" d="M299.5 83c-.3-.9-1.4-1.5-2.7-1.6-8.5-.2-15.9 3.2-23.2 6.6-1.5.7-2.8 1.2-4.4 1.8l-.5-10.7c-.3-6.5 1.3-12.2 2.8-17.8.7-2.6-2.3-4.2-4.8-2.8-3.3 1.9-6.2 5.2-8.6 8.4-1 1.4-3.3 5.2-4.1 6.7-2.3 4.7-2.2 10.4-2.1 15.7-1.9 4.7-6.1 13.1-7.7 16-.4.7-.6 1-.6 1s-9.2 4.2-11.6 16c-.5 2.7-.3 6.2-.5 6.3-.5 1.3-1.4 2.5-2.7 3.5-.5.3-1-.1-1-.6-.1-4 1.4-10.1 3-15.5 1.2-4 5.9-16.6 7.9-20.5 2-4 6.8-15 7.3-16.8.4-1.4-.6-3.2-2-3.6-6.4-1.3-9.4 6.8-15.6 6.7-1.5-3.5 1.2-7.3 1.4-11.1.3-1.9.2-3.5-2-4.5-3-.8-6 .9-8.1 3-4.1 4.7-6 11.2-6.7 13.9-.7 2.7-.4 4-.2 5.8.2 1.9.8 5.3-.5 8.6-3.8 11-8.7 21.9-18 30.3-1.9 1.4-3.6 2.8-6.1 1.8-2.8-1.8-2-5.5-2-8.7 13-6.3 22.1-19.5 25.5-32.7 0 0 .6-5.3.5-6-.5-4-.1-8.3-3.6-11.4-2.9-2.6-6.7-3.4-10.5-1.4-14.3 7.5-20.9 23.4-23.8 38.2-.2 1.2-.3 1.6-.3 1.6s-4-.9-5 2c-1.5 4.1-.7 7.5 1.6 10.1 1.5 1.3 2.7 1.5 2.7 1.5s.8 4.8 1.1 6.8c.7 5.1 4.3 9 9.7 9.1 11.3.2 18.3-9.8 23.8-19 3.3-5.7 6.3-11.3 8.2-17.5 1.4-5.9 3.8-1.7 7.3-3.1 2.2-.9 3.5-1.9 5.2-1.2-3.4 7.7-5.4 15.9-7.5 24.1-1.3 6.1-3.9 14.7 2.1 18.6 1.9.9 4.1.2 5.4-.5 1.2-.8 4.6-4.7 4.6-4.7 1.2 5.1 5.4 10.6 9.5 14 5.7 4 14.6 5.9 21 2.1 5.9-3.3 8.2-9.7 9.2-15.8 1.2-12.2-1.8-24.9-2.7-37.1 2.4-1.6 5.7-3 8.7-4.1 3.2-1.1 5.9-1.9 8.9-.2 1.5.8 2 3.2 4.2 2.8 4.4-.9 6.8-6.3 7.9-10.3.4-1.6-.1-2.9-.4-3.8m-106 10.3c2.2-4.7 5.2-8.8 9.6-12.5.6-.6 1.1 0 1.2 1.6.5 8.4-3 14.9-7.3 21.2-2.5 2.8-5.4 5.9-8.9 7.3.5-5.9 2.8-12 5.4-17.6m56.8 44c-.6 1.5-.9 2.2-2.2 2.2-2.6-.1-4.1-1.8-5.1-4.2-3.2-7.3.6-16.1 6.1-21.8l3.4-2.9c-.1 0 .2 18.7-2.2 26.7M280.5 146.4a6.7 6.7 0 1 0 6.7 6.7c0-3.6-3-6.7-6.7-6.7m0 12c-2.9 0-5.3-2.4-5.3-5.3s2.4-5.3 5.3-5.3 5.3 2.4 5.3 5.3c0 3-2.4 5.3-5.3 5.3"/><path fill="#FFF" d="M283.3 151.6c0-1.3-1-2.3-2.3-2.3h-3.2v7.7h1.4v-3.1h1l1.5 3.1h1.6l-1.5-3.3c.8-.3 1.5-1.1 1.5-2.1m-2.3.8h-1.8v-1.7h1.8c.5 0 .8.4.8.8 0 .6-.4.9-.8.9"/></svg>