<svg xmlns="http://www.w3.org/2000/svg" width="30" height="30" viewBox="0 0 24 24" aria-labelledby="filled-email-read-2-email-title" style="fill: rgb(254, 253, 250);"><title id="filled-email-read-2-email-title">email-read-2(email)</title><path d="M17.785,14.411c-0.228,0.157-0.539,0.101-0.696-0.126c-0.157-0.228-0.101-0.539,0.126-0.695l6.175-4.276L12.286,1.59 c-0.172-0.119-0.399-0.119-0.571,0L0.61,9.314l6.175,4.276c0.227,0.157,0.283,0.468,0.126,0.695 c-0.157,0.227-0.469,0.283-0.696,0.126L0,10.108V21c0,1.102,0.897,2,2,2h20c1.103,0,2-0.898,2-2V10.108L17.785,14.411z M20.91,19.286c-0.158,0.227-0.469,0.281-0.696,0.124L15.342,16H8.658l-4.871,3.409c-0.226,0.159-0.537,0.104-0.696-0.124 c-0.158-0.226-0.104-0.537,0.123-0.695l5-3.5C8.297,15.031,8.398,15,8.5,15h7c0.102,0,0.203,0.031,0.287,0.091c0,0,5,3.499,5,3.5 C21.014,18.749,21.068,19.06,20.91,19.286z"/><g><path fill="none" d="M0 0H24V24H0z"/></g></svg>