<svg xmlns="http://www.w3.org/2000/svg" width="40" viewBox="0 0 24 24" aria-labelledby="outline-print-text-content-edition-title" height="40" style="fill: rgb(208, 0, 0);"><title id="outline-print-text-content-edition-title">print-text(content-edition)</title><path d="M21.5 7h-19C1.122 7 0 8.122 0 9.5v6C0 16.878 1.122 18 2.5 18H5v4.5C5 22.776 5.224 23 5.5 23h13c.276 0 .5-.224.5-.5V18h2.5c1.378 0 2.5-1.122 2.5-2.5v-6C24 8.122 22.878 7 21.5 7zM18 22H6v-7h12V22zM23 15.5c0 .827-.673 1.5-1.5 1.5H19v-2.5c0-.276-.224-.5-.5-.5h-13C5.224 14 5 14.224 5 14.5V17H2.5C1.673 17 1 16.327 1 15.5v-6C1 8.673 1.673 8 2.5 8h19C22.327 8 23 8.673 23 9.5V15.5zM5.5 6C5.776 6 6 5.776 6 5.5V2h9v2.5C15 4.776 15.224 5 15.5 5H18v.5C18 5.776 18.224 6 18.5 6S19 5.776 19 5.5v-1c0-.067-.014-.132-.039-.192-.025-.061-.062-.116-.108-.162l-2.999-2.999c-.046-.046-.101-.082-.162-.108C15.632 1.014 15.567 1 15.5 1h-10C5.224 1 5 1.224 5 1.5v4C5 5.776 5.224 6 5.5 6zM16 2.707L17.293 4H16V2.707z"/><path d="M3.5 9C2.673 9 2 9.673 2 10.5S2.673 12 3.5 12 5 11.327 5 10.5 4.327 9 3.5 9zM3.5 11C3.224 11 3 10.776 3 10.5S3.224 10 3.5 10 4 10.224 4 10.5 3.776 11 3.5 11zM16.5 16h-9C7.224 16 7 16.224 7 16.5S7.224 17 7.5 17h9c.276 0 .5-.224.5-.5S16.776 16 16.5 16zM16.5 18h-9C7.224 18 7 18.224 7 18.5S7.224 19 7.5 19h9c.276 0 .5-.224.5-.5S16.776 18 16.5 18zM16.5 20h-9C7.224 20 7 20.224 7 20.5S7.224 21 7.5 21h9c.276 0 .5-.224.5-.5S16.776 20 16.5 20z"/><g><path fill="none" d="M0 0H24V24H0z"/></g></svg>