<svg xmlns="http://www.w3.org/2000/svg" width="40" height="40" viewBox="0 0 24 24" aria-labelledby="outline-qr-code-scan-mobile-phones-title" style="fill: rgb(208, 0, 0);"><title id="outline-qr-code-scan-mobile-phones-title">qr-code-scan(mobile-phones)</title><path d="M3.469 21H1v-2.469c0-.276-.224-.5-.5-.5S0 18.255 0 18.531V21.5C0 21.776.224 22 .5 22h2.969c.276 0 .5-.224.5-.5S3.745 21 3.469 21zM3.469 2H.5C.224 2 0 2.224 0 2.5v2.969c0 .276.224.5.5.5S1 5.745 1 5.469V3h2.469c.276 0 .5-.224.5-.5S3.745 2 3.469 2zM23.5 2h-2.969c-.276 0-.5.224-.5.5s.224.5.5.5H23v2.469c0 .276.224.5.5.5s.5-.224.5-.5V2.5C24 2.224 23.776 2 23.5 2zM23.5 18.031c-.276 0-.5.224-.5.5V21h-2.469c-.276 0-.5.224-.5.5s.224.5.5.5H23.5c.276 0 .5-.224.5-.5v-2.969C24 18.255 23.776 18.031 23.5 18.031zM5.5 9h2C7.776 9 8 8.776 8 8.5v-2C8 6.224 7.776 6 7.5 6h-2C5.224 6 5 6.224 5 6.5v2C5 8.776 5.224 9 5.5 9zM6 7h1v1H6V7zM7.5 15h-2C5.224 15 5 15.224 5 15.5v2C5 17.776 5.224 18 5.5 18h2C7.776 18 8 17.776 8 17.5v-2C8 15.224 7.776 15 7.5 15zM7 17H6v-1h1V17zM16.5 9h2C18.776 9 19 8.776 19 8.5v-2C19 6.224 18.776 6 18.5 6h-2C16.224 6 16 6.224 16 6.5v2C16 8.776 16.224 9 16.5 9zM17 7h1v1h-1V7zM5.5 11H8v.5C8 11.776 8.224 12 8.5 12S9 11.776 9 11.5v-1C9 10.224 8.776 10 8.5 10h-3C5.224 10 5 10.224 5 10.5S5.224 11 5.5 11zM5.5 14h4c.276 0 .5-.224.5-.5S9.776 13 9.5 13h-4C5.224 13 5 13.224 5 13.5S5.224 14 5.5 14zM18.5 12h-3.984c-.276 0-.5.224-.5.5v5c0 .276.224.5.5.5H18.5c.276 0 .5-.224.5-.5v-2c0-.276-.224-.5-.5-.5h-1.984c-.276 0-.5.224-.5.5s.224.5.5.5H18v1h-2.984v-4H18v.5c0 .276.224.5.5.5s.5-.224.5-.5v-1C19 12.224 18.776 12 18.5 12zM11.516 14c.276 0 .5-.224.5-.5v-1c0-.276-.224-.5-.5-.5s-.5.224-.5.5v1C11.016 13.776 11.239 14 11.516 14zM14.516 8c.276 0 .5-.224.5-.5v-1c0-.276-.224-.5-.5-.5s-.5.224-.5.5v1C14.016 7.776 14.239 8 14.516 8zM12.5 15h-.984c-.276 0-.5.224-.5.5s.224.5.5.5H12.5c.276 0 .5-.224.5-.5S12.776 15 12.5 15zM12.5 17H10v-1.469c0-.276-.224-.5-.5-.5S9 15.255 9 15.531V17.5C9 17.776 9.224 18 9.5 18h3c.276 0 .5-.224.5-.5S12.776 17 12.5 17zM9.5 9h1C10.776 9 11 8.776 11 8.5S10.776 8 10.5 8H10V6.516c0-.276-.224-.5-.5-.5S9 6.239 9 6.516V8.5C9 8.776 9.224 9 9.5 9z"/><path d="M12.5 6.016c-.276 0-.5.224-.5.5V10h-1.5c-.276 0-.5.224-.5.5s.224.5.5.5h2c.276 0 .5-.224.5-.5V6.516C13 6.239 12.776 6.016 12.5 6.016zM18.516 10h-4c-.276 0-.5.224-.5.5s.224.5.5.5h4c.276 0 .5-.224.5-.5S18.792 10 18.516 10z"/><g><path fill="none" d="M0 0H24V24H0z"/></g></svg>